<svg xmlns="http://www.w3.org/2000/svg" width="816" height="816" xmlns:v="https://vecta.io/nano"><defs><clipPath id="A"><path d="M0 612h612V0H0z" transform="translate(-575.778 -59.5)"/></clipPath><clipPath id="B"><path d="M0 612h612V0H0z" transform="translate(-105.043 -396.733)"/></clipPath><clipPath id="C"><path d="M0 612h612V0H0z" transform="translate(-82.752 -15.229)"/></clipPath><clipPath id="D"><path d="M0 612h612V0H0z" transform="translate(-411.99 -27.893)"/></clipPath><clipPath id="E"><path d="M0 612h612V0H0z" transform="translate(-407.093 -26.22)"/></clipPath><clipPath id="F"><path d="M0 612h612V0H0z" transform="translate(-184.747 -118.633)"/></clipPath><clipPath id="G"><path d="M0 612h612V0H0z" transform="translate(-375.507 -268.31)"/></clipPath><clipPath id="H"><path d="M0 612h612V0H0z" transform="translate(-412.783 -421.026)"/></clipPath></defs><path d="M0 0c0-1.902-1.542-3.444-3.444-3.444h-22.723c-1.902 0-3.444 1.542-3.444 3.444v16.889c0 1.902 1.542 3.444 3.444 3.444h22.723c1.902 0 3.444-1.542 3.444-3.444zm-14.374 542.657H-40.16v-3.514h-47.771l-10.828-10.828h-27.352v10.828h-339.527l-4.458-4.458h-18.472l-4.458 7.972h-45.294a10.46 10.46 0 0 1-10.458-10.458V-33.814a10.46 10.46 0 0 1 10.458-10.457H6.778a10.46 10.46 0 0 1 10.457 10.457v544.861z" transform="matrix(1.333333 0 0 -1.333333 767.70373 736.66667)" clip-path="url(#A)" fill="#d12027"/><path d="M0 0h336.946c12.311 0 22.291 9.98 22.291 22.292v168.791h-14.613v10.828H5.097l-4.459-4.459h-18.471l-4.237 7.576c-.143-1.018-.222-2.058-.222-3.116V22.292C-22.292 9.98-12.311 0 0 0" transform="matrix(1.333333 0 0 -1.333333 140.0576 287.02333)" clip-path="url(#B)" fill="#85171a"/><path d="M0 0h456.051v324.179c0 10.201-8.27 18.471-18.471 18.471H18.471C8.27 342.65 0 334.38 0 324.179z" transform="matrix(1.333333 0 0 -1.333333 110.33547 795.69493)" clip-path="url(#C)" fill="#841619"/><path d="M0 0c54.401 18.579 97.814 59.917 119.167 112.959v193.927a15.4 15.4 0 0 1-15.398 15.397h-410.582a15.4 15.4 0 0 1-15.398-15.397V-1.672H-4.897z" transform="matrix(1.333333 0 0 -1.333333 549.3204 778.80987)" clip-path="url(#D)" fill="#fee8dd"/><path d="M0 0v98.743c0 8.775 7.114 15.888 15.889 15.888h108.175l-2.464-6.485A175.53 175.53 0 0 0 7.332 2.17z" transform="matrix(1.333333 0 0 -1.333333 542.7908 781.03973)" clip-path="url(#E)" fill="#cab8af"/><g fill="#d12027"><path d="M0 0c8.013-5.129 26.603-13.142 46.153-13.142 36.218 0 47.436 23.078 47.116 40.385-.321 29.166-26.603 41.666-53.846 41.666H23.718v21.154h15.705c20.513 0 46.474 10.576 46.474 35.256 0 16.666-10.577 31.41-36.539 31.41-16.666 0-32.691-7.372-41.666-13.782L.32 163.459c10.898 8.013 32.052 16.026 54.487 16.026 41.026 0 59.615-24.359 59.615-49.679 0-21.474-12.82-39.743-38.461-49.037v-.642c25.641-5.128 46.474-24.358 46.474-53.525 0-33.333-25.961-62.499-75.961-62.499-23.397 0-43.91 7.371-54.166 14.102z" transform="matrix(1.333333 0 0 -1.333333 246.3288 657.82293)" clip-path="url(#F)"/><path d="M0 0h-.641l-36.217-19.551-5.449 21.474L3.205 26.282h24.039V-182.05H0z" transform="matrix(1.333333 0 0 -1.333333 500.67573 458.25267)" clip-path="url(#G)"/></g><path d="M0 0a6.37 6.37 0 0 0-6.369-6.369h-63.058A6.37 6.37 0 0 0-75.796 0v147.134a6.37 6.37 0 0 0 6.369 6.369h63.058A6.37 6.37 0 0 0 0 147.134zm-201.274 180.255v-2.548h-17.834v2.548h-34.395V-2.548c0-9.146 7.414-16.56 16.56-16.56H29.936c9.146 0 16.561 7.414 16.561 16.56v182.803z" transform="matrix(1.333333 0 0 -1.333333 550.37787 254.63267)" clip-path="url(#H)" fill="#bcbec0"/></svg>
